<svg xmlns="http://www.w3.org/2000/svg" xmlns:xlink="http://www.w3.org/1999/xlink" width="500" zoomAndPan="magnify" viewBox="0 0 375 374.999991" height="500" preserveAspectRatio="xMidYMid meet" version="1.0"><defs><g/><clipPath id="6ecc8db29a"><path d="M 127.804688 85.390625 L 247.054688 85.390625 L 247.054688 204.640625 L 127.804688 204.640625 Z M 127.804688 85.390625 " clip-rule="nonzero"/></clipPath><clipPath id="8b322b93da"><path d="M 187 115 L 247.054688 115 L 247.054688 204.640625 L 187 204.640625 Z M 187 115 " clip-rule="nonzero"/></clipPath><clipPath id="d48aac5535"><path d="M 157 115 L 218 115 L 218 204.640625 L 157 204.640625 Z M 157 115 " clip-rule="nonzero"/></clipPath></defs><g fill="#201f1a" fill-opacity="1"><g transform="translate(77.117874, 258.618485)"><g/></g></g><g fill="#201f1a" fill-opacity="1"><g transform="translate(94.602248, 258.618485)"><g><path d="M 12.421875 0.5625 C 10.296875 0.5625 8.421875 0.175781 6.796875 -0.59375 C 5.179688 -1.363281 3.914062 -2.460938 3 -3.890625 C 2.082031 -5.328125 1.625 -7.039062 1.625 -9.03125 L 7.71875 -9.03125 C 7.71875 -7.675781 8.1875 -6.675781 9.125 -6.03125 C 10.070312 -5.382812 11.15625 -5.0625 12.375 -5.0625 C 13.144531 -5.0625 13.867188 -5.1875 14.546875 -5.4375 C 15.222656 -5.6875 15.78125 -6.054688 16.21875 -6.546875 C 16.65625 -7.035156 16.875 -7.628906 16.875 -8.328125 C 16.875 -9.035156 16.625 -9.59375 16.125 -10 C 15.625 -10.414062 14.945312 -10.753906 14.09375 -11.015625 C 13.238281 -11.285156 12.3125 -11.539062 11.3125 -11.78125 C 10.269531 -12.019531 9.203125 -12.3125 8.109375 -12.65625 C 7.023438 -13 6.019531 -13.457031 5.09375 -14.03125 C 4.164062 -14.601562 3.421875 -15.375 2.859375 -16.34375 C 2.304688 -17.3125 2.03125 -18.539062 2.03125 -20.03125 C 2.03125 -22.707031 2.9375 -24.769531 4.75 -26.21875 C 6.570312 -27.664062 9.035156 -28.390625 12.140625 -28.390625 C 15.328125 -28.390625 17.796875 -27.582031 19.546875 -25.96875 C 21.296875 -24.363281 22.171875 -22.179688 22.171875 -19.421875 L 16.203125 -19.421875 C 16.203125 -20.617188 15.773438 -21.503906 14.921875 -22.078125 C 14.078125 -22.648438 13.097656 -22.9375 11.984375 -22.9375 C 11.003906 -22.9375 10.101562 -22.722656 9.28125 -22.296875 C 8.457031 -21.867188 8.046875 -21.203125 8.046875 -20.296875 C 8.046875 -19.640625 8.289062 -19.117188 8.78125 -18.734375 C 9.269531 -18.347656 9.914062 -18.023438 10.71875 -17.765625 C 11.53125 -17.515625 12.429688 -17.273438 13.421875 -17.046875 C 14.484375 -16.773438 15.570312 -16.457031 16.6875 -16.09375 C 17.800781 -15.738281 18.832031 -15.253906 19.78125 -14.640625 C 20.738281 -14.035156 21.515625 -13.226562 22.109375 -12.21875 C 22.710938 -11.207031 23.015625 -9.9375 23.015625 -8.40625 C 23.015625 -6.382812 22.53125 -4.707031 21.5625 -3.375 C 20.59375 -2.050781 19.3125 -1.0625 17.71875 -0.40625 C 16.125 0.238281 14.359375 0.5625 12.421875 0.5625 Z M 12.421875 0.5625 "/></g></g></g><g fill="#201f1a" fill-opacity="1"><g transform="translate(127.206106, 258.618485)"><g><path d="M 32.328125 2.984375 L 26.203125 2.984375 L 22.9375 -0.75 C 21.945312 -0.332031 20.90625 -0.00390625 19.8125 0.234375 C 18.726562 0.472656 17.59375 0.59375 16.40625 0.59375 C 14.28125 0.59375 12.3125 0.226562 10.5 -0.5 C 8.695312 -1.226562 7.125 -2.25 5.78125 -3.5625 C 4.445312 -4.875 3.40625 -6.410156 2.65625 -8.171875 C 1.914062 -9.941406 1.546875 -11.863281 1.546875 -13.9375 C 1.546875 -16.007812 1.914062 -17.925781 2.65625 -19.6875 C 3.40625 -21.445312 4.445312 -22.984375 5.78125 -24.296875 C 7.125 -25.617188 8.695312 -26.644531 10.5 -27.375 C 12.3125 -28.101562 14.28125 -28.46875 16.40625 -28.46875 C 18.53125 -28.46875 20.492188 -28.101562 22.296875 -27.375 C 24.097656 -26.644531 25.660156 -25.617188 26.984375 -24.296875 C 28.316406 -22.984375 29.351562 -21.445312 30.09375 -19.6875 C 30.84375 -17.925781 31.21875 -16.007812 31.21875 -13.9375 C 31.21875 -11.8125 30.820312 -9.84375 30.03125 -8.03125 C 29.25 -6.226562 28.179688 -4.679688 26.828125 -3.390625 Z M 16.40625 -5.09375 C 17.28125 -5.09375 18.113281 -5.203125 18.90625 -5.421875 L 13.375 -11.828125 L 19.515625 -11.828125 L 22.890625 -7.921875 C 23.578125 -8.691406 24.117188 -9.585938 24.515625 -10.609375 C 24.921875 -11.628906 25.125 -12.738281 25.125 -13.9375 C 25.125 -15.601562 24.742188 -17.109375 23.984375 -18.453125 C 23.234375 -19.796875 22.195312 -20.847656 20.875 -21.609375 C 19.5625 -22.378906 18.070312 -22.765625 16.40625 -22.765625 C 14.757812 -22.765625 13.269531 -22.378906 11.9375 -21.609375 C 10.613281 -20.847656 9.566406 -19.796875 8.796875 -18.453125 C 8.023438 -17.109375 7.640625 -15.601562 7.640625 -13.9375 C 7.640625 -12.257812 8.023438 -10.75 8.796875 -9.40625 C 9.566406 -8.070312 10.613281 -7.019531 11.9375 -6.25 C 13.269531 -5.476562 14.757812 -5.09375 16.40625 -5.09375 Z M 16.40625 -5.09375 "/></g></g></g><g fill="#201f1a" fill-opacity="1"><g transform="translate(168.010535, 258.618485)"><g><path d="M 14.40625 0.59375 C 12.207031 0.59375 10.242188 0.125 8.515625 -0.8125 C 6.796875 -1.757812 5.429688 -3.0625 4.421875 -4.71875 C 3.410156 -6.375 2.90625 -8.289062 2.90625 -10.46875 L 2.90625 -27.875 L 8.953125 -27.875 L 8.953125 -10.75 C 8.953125 -9.019531 9.460938 -7.644531 10.484375 -6.625 C 11.503906 -5.601562 12.8125 -5.09375 14.40625 -5.09375 C 16.03125 -5.09375 17.351562 -5.601562 18.375 -6.625 C 19.394531 -7.644531 19.90625 -9.019531 19.90625 -10.75 L 19.90625 -27.875 L 25.921875 -27.875 L 25.921875 -10.46875 C 25.921875 -8.289062 25.421875 -6.375 24.421875 -4.71875 C 23.429688 -3.0625 22.066406 -1.757812 20.328125 -0.8125 C 18.585938 0.125 16.613281 0.59375 14.40625 0.59375 Z M 14.40625 0.59375 "/></g></g></g><g fill="#201f1a" fill-opacity="1"><g transform="translate(204.794299, 258.618485)"><g><path d="M 21.703125 0 L 19.75 -5.296875 L 8.640625 -5.296875 L 6.734375 0 L 0.359375 0 L 11.265625 -27.875 L 16.953125 -27.875 L 28.234375 0 Z M 14.171875 -20.5 L 10.546875 -10.546875 L 17.84375 -10.546875 Z M 14.171875 -20.5 "/></g></g></g><g fill="#201f1a" fill-opacity="1"><g transform="translate(241.339207, 258.618485)"><g><path d="M 18.515625 0 L 13.09375 -9.515625 L 9.234375 -9.515625 L 9.234375 0 L 3.1875 0 L 3.1875 -27.875 L 14.453125 -27.875 C 16.304688 -27.875 17.960938 -27.472656 19.421875 -26.671875 C 20.890625 -25.878906 22.046875 -24.789062 22.890625 -23.40625 C 23.742188 -22.03125 24.171875 -20.4375 24.171875 -18.625 C 24.171875 -16.820312 23.710938 -15.210938 22.796875 -13.796875 C 21.878906 -12.378906 20.648438 -11.296875 19.109375 -10.546875 L 25.28125 0 Z M 9.234375 -22.296875 L 9.234375 -15.09375 L 14.046875 -15.09375 C 15.296875 -15.09375 16.28125 -15.429688 17 -16.109375 C 17.71875 -16.785156 18.078125 -17.640625 18.078125 -18.671875 C 18.078125 -19.734375 17.71875 -20.601562 17 -21.28125 C 16.28125 -21.957031 15.296875 -22.296875 14.046875 -22.296875 Z M 9.234375 -22.296875 "/></g></g></g><g fill="#201f1a" fill-opacity="1"><g transform="translate(275.615026, 258.618485)"><g><path d="M 9.234375 -5.609375 L 20.34375 -5.609375 L 20.34375 0 L 3.1875 0 L 3.1875 -27.875 L 19.90625 -27.875 L 19.90625 -22.296875 L 9.234375 -22.296875 L 9.234375 -16.796875 L 18.875 -16.796875 L 18.875 -11.34375 L 9.234375 -11.34375 Z M 9.234375 -5.609375 "/></g></g></g><g fill="#e70000" fill-opacity="1"><g transform="translate(149.315195, 277.512315)"><g><path d="M 5.78125 -3.421875 L 5.78125 0 L 3.546875 0 L 3.546875 -3.453125 L -0.1875 -9.640625 L 2.171875 -9.640625 L 4.75 -5.359375 L 7.328125 -9.640625 L 9.515625 -9.640625 Z M 5.78125 -3.421875 "/></g></g></g><g fill="#e70000" fill-opacity="1"><g transform="translate(169.660601, 277.512315)"><g><path d="M 7.5 -2.0625 L 3.015625 -2.0625 L 2.15625 0 L -0.125 0 L 4.171875 -9.640625 L 6.375 -9.640625 L 10.6875 0 L 8.34375 0 Z M 6.796875 -3.765625 L 5.265625 -7.453125 L 3.734375 -3.765625 Z M 6.796875 -3.765625 "/></g></g></g><g fill="#e70000" fill-opacity="1"><g transform="translate(191.246316, 277.512315)"><g><path d="M 7.296875 0 L 5.4375 -2.6875 L 3.375 -2.6875 L 3.375 0 L 1.140625 0 L 1.140625 -9.640625 L 5.3125 -9.640625 C 6.164062 -9.640625 6.90625 -9.5 7.53125 -9.21875 C 8.164062 -8.9375 8.65625 -8.53125 9 -8 C 9.34375 -7.476562 9.515625 -6.859375 9.515625 -6.140625 C 9.515625 -5.429688 9.335938 -4.816406 8.984375 -4.296875 C 8.640625 -3.773438 8.15625 -3.375 7.53125 -3.09375 L 9.6875 0 Z M 7.25 -6.140625 C 7.25 -6.679688 7.070312 -7.097656 6.71875 -7.390625 C 6.375 -7.679688 5.867188 -7.828125 5.203125 -7.828125 L 3.375 -7.828125 L 3.375 -4.46875 L 5.203125 -4.46875 C 5.867188 -4.46875 6.375 -4.613281 6.71875 -4.90625 C 7.070312 -5.195312 7.25 -5.609375 7.25 -6.140625 Z M 7.25 -6.140625 "/></g></g></g><g fill="#e70000" fill-opacity="1"><g transform="translate(212.40481, 277.512315)"><g><path d="M 1.140625 -9.640625 L 5.53125 -9.640625 C 6.570312 -9.640625 7.492188 -9.441406 8.296875 -9.046875 C 9.109375 -8.648438 9.734375 -8.085938 10.171875 -7.359375 C 10.617188 -6.628906 10.84375 -5.785156 10.84375 -4.828125 C 10.84375 -3.859375 10.617188 -3.007812 10.171875 -2.28125 C 9.734375 -1.5625 9.109375 -1 8.296875 -0.59375 C 7.492188 -0.195312 6.570312 0 5.53125 0 L 1.140625 0 Z M 5.421875 -1.828125 C 6.378906 -1.828125 7.144531 -2.097656 7.71875 -2.640625 C 8.289062 -3.179688 8.578125 -3.910156 8.578125 -4.828125 C 8.578125 -5.742188 8.289062 -6.46875 7.71875 -7 C 7.144531 -7.539062 6.378906 -7.8125 5.421875 -7.8125 L 3.375 -7.8125 L 3.375 -1.828125 Z M 5.421875 -1.828125 "/></g></g></g><g fill="#e70000" fill-opacity="1"><g transform="translate(234.817398, 277.512315)"><g><path d="M 4.3125 0.171875 C 3.550781 0.171875 2.8125 0.0664062 2.09375 -0.140625 C 1.382812 -0.347656 0.816406 -0.617188 0.390625 -0.953125 L 1.140625 -2.625 C 1.554688 -2.320312 2.046875 -2.078125 2.609375 -1.890625 C 3.179688 -1.710938 3.753906 -1.625 4.328125 -1.625 C 4.960938 -1.625 5.429688 -1.71875 5.734375 -1.90625 C 6.035156 -2.09375 6.1875 -2.34375 6.1875 -2.65625 C 6.1875 -2.882812 6.097656 -3.070312 5.921875 -3.21875 C 5.742188 -3.375 5.515625 -3.5 5.234375 -3.59375 C 4.953125 -3.6875 4.570312 -3.789062 4.09375 -3.90625 C 3.351562 -4.070312 2.75 -4.242188 2.28125 -4.421875 C 1.8125 -4.597656 1.410156 -4.878906 1.078125 -5.265625 C 0.742188 -5.648438 0.578125 -6.164062 0.578125 -6.8125 C 0.578125 -7.375 0.726562 -7.878906 1.03125 -8.328125 C 1.332031 -8.785156 1.789062 -9.144531 2.40625 -9.40625 C 3.019531 -9.675781 3.765625 -9.8125 4.640625 -9.8125 C 5.253906 -9.8125 5.851562 -9.738281 6.4375 -9.59375 C 7.03125 -9.445312 7.550781 -9.234375 8 -8.953125 L 7.296875 -7.265625 C 6.410156 -7.765625 5.519531 -8.015625 4.625 -8.015625 C 4 -8.015625 3.535156 -7.914062 3.234375 -7.71875 C 2.941406 -7.519531 2.796875 -7.253906 2.796875 -6.921875 C 2.796875 -6.585938 2.96875 -6.335938 3.3125 -6.171875 C 3.65625 -6.015625 4.179688 -5.859375 4.890625 -5.703125 C 5.628906 -5.523438 6.234375 -5.347656 6.703125 -5.171875 C 7.171875 -5.003906 7.570312 -4.734375 7.90625 -4.359375 C 8.238281 -3.984375 8.40625 -3.472656 8.40625 -2.828125 C 8.40625 -2.273438 8.25 -1.769531 7.9375 -1.3125 C 7.632812 -0.863281 7.175781 -0.503906 6.5625 -0.234375 C 5.945312 0.0351562 5.195312 0.171875 4.3125 0.171875 Z M 4.3125 0.171875 "/></g></g></g><g clip-path="url(#6ecc8db29a)"><path fill="#e70000" d="M 127.804688 85.390625 L 127.804688 204.769531 L 142.441406 204.769531 L 142.441406 100.027344 L 247.183594 100.027344 L 247.183594 85.390625 Z M 127.804688 85.390625 " fill-opacity="1" fill-rule="nonzero"/></g><g clip-path="url(#8b322b93da)"><path fill="#e70000" d="M 232.597656 190.230469 L 187.519531 190.230469 L 187.519531 204.769531 L 247.136719 204.769531 L 247.136719 115.308594 L 232.597656 115.308594 Z M 232.597656 190.230469 " fill-opacity="1" fill-rule="nonzero"/></g><g clip-path="url(#d48aac5535)"><path fill="#e70000" d="M 210.105469 174.925781 L 217.339844 174.925781 L 217.339844 115.308594 L 157.722656 115.308594 L 157.722656 204.769531 L 172.261719 204.769531 L 172.261719 174.925781 Z M 172.285156 129.871094 L 202.726562 129.871094 L 202.726562 160.3125 L 172.285156 160.3125 Z M 172.285156 129.871094 " fill-opacity="1" fill-rule="nonzero"/></g></svg>